<?xml version="1.0" encoding="utf-8"?>
<!-- Generator: Adobe Illustrator 24.0.2, SVG Export Plug-In . SVG Version: 6.00 Build 0)  -->
<svg version="1.1" id="Layer_1" xmlns="http://www.w3.org/2000/svg" xmlns:xlink="http://www.w3.org/1999/xlink" x="0px" y="0px"
	 viewBox="0 0 1200 1200" style="enable-background:new 0 0 1200 1200;" xml:space="preserve">
<style type="text/css">
	.st0{fill-rule:evenodd;clip-rule:evenodd;fill:#DEEDFF;}
	.st1{fill-rule:evenodd;clip-rule:evenodd;fill:#475D77;}
	.st2{fill-rule:evenodd;clip-rule:evenodd;fill:#6F9AB5;}
	.st3{fill-rule:evenodd;clip-rule:evenodd;fill:#41B883;}
	.st4{fill-rule:evenodd;clip-rule:evenodd;fill:#FF2D20;}
	.st5{fill-rule:evenodd;clip-rule:evenodd;fill:#38BDF8;}
</style>
<g>
	<g>
		<path class="st0" d="M574.1,875l25.8-33c0,0-91.6-77-227.1-141.2s-202.2-64.3-202.2-64.3l7.7,92.4l298.4,85.5l-292.8-16.8
			L574.1,875z"/>
		<path class="st1" d="M38.8,841.1L599.9,960l561.3-118.9c5-1,9.8,2.4,10.8,7.6v0.1c0.9,5.2-2.3,10.3-7.2,11.4L601.9,979.2l0,0l0,0
			c-1.3,0.3-2.5,0.3-3.8,0.1L35.2,860.2c-4.9-1.1-8.2-6.2-7.2-11.4l0,0C29.1,843.5,33.9,840.1,38.8,841.1L38.8,841.1z"/>
		<path class="st2" d="M599.9,960c0-19.4,0-98.6,0-117.9c-164.3-36.5-334.1-75.6-498.4-112.2L59.2,845.5L599.9,960z"/>
		<path class="st0" d="M625.7,875l-25.8-33c0,0,91.6-77,227.1-141.2c135.6-64.3,202.2-64.3,202.2-64.3l-7.7,92.4L723,814.4
			l292.8-16.8L625.7,875z"/>
		<path class="st2" d="M599.9,960c0-19.4,0-98.6,0-117.9c164.3-36.5,334.2-75.6,498.4-112.2l42.3,115.6L599.9,960z"/>
		<path class="st3" d="M678.5,755.3v-445l-157-89.7v534.9c9.5,6.1,18.9,12.4,28.2,18.8c16.7,11.4,33.9,23.6,50.2,36.3
			c16.3-12.7,33.5-24.9,50.2-36.3C659.4,767.8,668.9,761.4,678.5,755.3L678.5,755.3z"/>
		<path class="st4" d="M509.1,747.5V412.6L360,519.8v147.8c7.5,3.4,15,6.9,22.4,10.3C425.7,698.4,468.2,721.8,509.1,747.5
			L509.1,747.5z"/>
		<path class="st5" d="M688.7,514.2v234.5c41.5-26.2,84.6-50,128.6-70.9c6.8-3.2,13.6-6.3,20.4-9.4v-65.3L688.7,514.2z"/>
	</g>
</g>
<g>
</g>
<g>
</g>
<g>
</g>
<g>
</g>
<g>
</g>
<g>
</g>
</svg>
